<svg version="1.1" id="Layer_1" xmlns="http://www.w3.org/2000/svg" xmlns:xlink="http://www.w3.org/1999/xlink" x="0px" y="0px"
	 width="100%" viewBox="0 0 288 240" enable-background="new 0 0 288 240" xml:space="preserve">
<path fill="#000000" opacity="1.000000" stroke="none" 
	d="
M48.772110,162.575684 
	C45.002586,162.003754 41.943233,160.642166 39.087933,158.949097 
	C36.021229,157.130692 36.178902,155.171494 39.264023,153.676865 
	C45.285065,150.759888 45.514523,149.935089 42.035175,144.032333 
	C41.444553,143.030334 40.873241,142.000534 40.441349,140.924042 
	C36.965065,132.259491 34.215359,123.219948 26.132601,117.252663 
	C24.645485,116.154762 22.940811,114.163528 23.982695,111.742706 
	C24.909058,111.005142 25.696180,111.372543 26.419949,111.741997 
	C32.688641,114.941933 33.120155,114.994843 33.831470,108.222794 
	C35.431038,92.994186 45.361988,84.409065 57.585033,77.728348 
	C63.542587,74.472145 70.105156,74.857826 76.504723,76.827118 
	C78.188400,77.345222 80.093185,77.806000 80.577179,79.961288 
	C80.388329,80.282829 80.277138,80.744499 80.061401,80.800026 
	C72.806892,82.667488 72.851761,82.622658 77.756699,88.419022 
	C79.442009,90.410629 81.359497,92.397217 81.220802,95.403717 
	C78.993027,97.160934 77.469719,95.307243 75.908852,94.342918 
	C71.645302,91.708847 67.315483,89.332199 62.362846,88.150818 
	C53.668419,86.076881 46.673950,91.215996 46.388630,100.172890 
	C46.316795,102.428032 45.680183,104.795883 46.956684,106.946297 
	C52.966488,106.048409 52.954685,106.047241 52.364563,112.024879 
	C51.332088,122.483360 58.536858,127.255707 65.885567,131.964523 
	C67.970238,130.981979 68.369316,129.212860 68.839119,127.439110 
	C69.138412,126.309143 69.618195,125.161667 71.003845,124.999626 
	C72.393074,124.837158 73.074165,125.875099 73.694191,126.871391 
	C75.828468,130.300842 77.373611,134.069656 77.992310,137.977173 
	C78.504501,141.211990 80.084579,143.376694 82.199051,145.580124 
	C86.210899,149.760773 88.839645,154.686462 89.395744,160.574142 
	C89.722122,164.029648 88.187729,165.855850 84.750519,166.349869 
	C78.533371,167.243469 72.392776,166.648529 66.600494,164.510254 
	C62.262760,162.908966 58.195999,161.736221 53.586262,163.118362 
	C52.280205,163.509949 50.659897,162.853439 48.772110,162.575684 
M66.618561,146.090591 
	C67.039810,146.794632 66.479805,148.400604 68.189034,147.921539 
	C69.689636,147.500946 69.940910,146.587738 69.894539,144.929398 
	C69.646736,136.068359 62.600079,133.364105 56.665791,128.900711 
	C56.282757,132.012802 58.628922,133.813110 57.781349,137.418045 
	C48.363464,130.897659 42.608208,122.560692 38.842911,112.261223 
	C38.049759,114.292526 37.375229,115.811661 36.858967,117.382797 
	C35.514278,121.475052 37.381752,125.199562 38.330872,129.012772 
	C39.125416,132.204941 42.027184,130.268585 43.820911,131.107056 
	C45.544804,131.912888 47.355911,132.822845 47.875763,134.586304 
	C49.682838,140.716324 54.486183,141.438995 59.668591,141.398056 
	C62.893162,141.372574 65.064384,142.674301 66.618561,146.090591 
M83.964241,164.323639 
	C86.799294,163.567123 87.213135,161.854767 85.955627,159.413208 
	C83.351547,154.357132 78.742645,151.695068 73.860115,149.470566 
	C72.212776,148.720047 70.554222,149.469025 69.570312,151.089874 
	C65.760811,157.365479 68.500328,163.021011 76.084053,164.095001 
	C76.881378,162.460892 76.334534,159.555695 79.527191,159.701401 
	C82.434830,159.834106 82.579041,162.261719 83.964241,164.323639 
z"/>
<path fill="#000000" opacity="1.000000" stroke="none" 
	d="
M138.354187,111.513046 
	C146.034576,115.387245 148.276337,122.683136 144.226791,129.565674 
	C141.115433,134.853683 133.471970,136.524796 127.995720,133.114319 
	C122.133736,129.463608 120.641205,121.367989 124.766045,115.596298 
	C127.705505,111.483246 132.415482,109.989182 138.354187,111.513046 
M140.016953,129.560913 
	C140.811111,128.315903 141.875290,127.165382 142.350067,125.808601 
	C143.938995,121.267937 142.252243,117.045387 138.161194,114.757607 
	C134.352737,112.627869 130.549789,113.469688 127.602859,117.094765 
	C124.716522,120.645294 124.824532,125.283890 127.878578,128.936432 
	C130.693481,132.302948 134.755463,132.708466 140.016953,129.560913 
z"/>
<path fill="#000000" opacity="1.000000" stroke="none" 
	d="
M230.560638,134.677551 
	C223.461716,132.388657 220.059586,127.597878 220.724213,121.264534 
	C221.277527,115.991898 225.742630,111.493286 231.176178,110.734154 
	C236.363434,110.009422 241.883316,113.348511 243.752655,118.549408 
	C246.417374,125.963158 241.704666,135.733734 230.560638,134.677551 
M226.319992,129.105072 
	C230.742599,132.554367 235.133942,132.803329 238.411606,129.790588 
	C241.866562,126.614891 242.288483,120.987610 239.361191,117.125641 
	C236.721329,113.642868 232.539383,112.695854 228.799011,114.733818 
	C224.401596,117.129776 223.014389,121.396172 224.931442,126.726768 
	C225.153687,127.344742 225.537201,127.904724 226.319992,129.105072 
z"/>
<path fill="#000000" opacity="1.000000" stroke="none" 
	d="
M107.391983,119.382507 
	C104.869980,121.587753 105.137375,123.372169 107.143166,125.488579 
	C109.761284,128.251053 112.340393,131.024292 116.073357,133.397049 
	C112.707939,135.255508 110.823296,133.607864 108.862518,131.868225 
	C107.048332,130.258652 105.995277,127.790466 103.447609,126.902695 
	C100.927162,128.616516 103.500511,132.348862 99.541901,134.481659 
	C98.253319,126.518623 98.528091,119.191811 99.342926,111.277489 
	C101.587013,113.202469 101.587013,113.202469 102.936401,118.862946 
	C106.855873,117.480675 107.771393,112.190720 112.711510,111.368958 
	C112.365120,115.193886 109.324539,116.740372 107.391983,119.382507 
z"/>
<path fill="#000000" opacity="1.000000" stroke="none" 
	d="
M180.394897,120.621109 
	C181.471207,121.449173 182.289352,122.026657 183.040344,122.681221 
	C186.669327,125.844254 187.467499,129.894730 185.036530,132.679840 
	C182.168045,135.966217 176.914886,135.822296 173.348267,132.316498 
	C174.498001,130.589020 176.044235,131.687164 177.396271,131.798294 
	C179.615250,131.980713 181.905945,132.238174 182.931168,129.688766 
	C183.885376,127.315933 182.090195,126.035606 180.502548,124.781631 
	C179.328568,123.854385 178.084671,123.006752 176.974014,122.009888 
	C173.329468,118.738724 172.688110,115.149551 175.203217,112.493042 
	C177.929672,109.613304 182.020813,109.757179 185.834106,113.046928 
	C183.487457,115.488106 178.702118,111.299461 177.480072,115.935257 
	C176.931747,118.015244 178.769028,119.175957 180.394897,120.621109 
z"/>
<path fill="#000000" opacity="1.000000" stroke="none" 
	d="
M256.682587,122.989655 
	C256.688019,120.673737 256.644226,118.846466 256.707581,117.022919 
	C256.795898,114.482285 255.942749,111.296783 259.970032,110.981201 
	C263.704651,110.688553 267.465302,110.887466 269.519135,114.721619 
	C271.265350,117.981476 270.468048,121.351181 267.406799,122.987617 
	C262.809692,125.445099 257.351135,126.710144 258.886169,134.526367 
	C255.859924,130.705856 256.990387,126.962326 256.682587,122.989655 
M266.381195,119.653473 
	C267.457825,116.785728 266.650482,114.822250 263.635712,113.903099 
	C262.106171,113.436768 260.434662,113.231392 259.840698,115.023941 
	C259.054596,117.396477 258.742950,120.349045 260.569305,122.029686 
	C262.505920,123.811783 264.497742,121.943047 266.381195,119.653473 
z"/>
<path fill="#000000" opacity="1.000000" stroke="none" 
	d="
M202.631607,118.402435 
	C203.232132,112.135201 196.952377,115.545692 194.846375,111.887123 
	C200.934006,110.334206 206.484680,110.501915 212.231140,111.718178 
	C211.992889,112.610756 211.935532,113.168045 211.828461,113.177773 
	C205.929565,113.713425 205.179245,117.289932 205.700119,122.384613 
	C206.085129,126.150291 205.300735,130.035522 204.097321,133.887009 
	C202.057602,128.990036 202.883194,123.859200 202.631607,118.402435 
z"/>
<path fill="#000000" opacity="1.000000" stroke="none" 
	d="
M161.323914,113.683273 
	C161.370941,120.654533 161.370941,127.200279 161.370941,133.548325 
	C159.115738,134.034988 158.748749,133.042099 158.736862,132.018555 
	C158.667404,126.037956 158.601105,120.055275 158.695953,114.075874 
	C158.730713,111.885933 159.496078,110.621811 161.323914,113.683273 
z"/>
</svg>