<?xml version="1.0" standalone="no"?>
<!DOCTYPE svg PUBLIC "-//W3C//DTD SVG 20010904//EN"
 "http://www.w3.org/TR/2001/REC-SVG-20010904/DTD/svg10.dtd">
<svg version="1.0" xmlns="http://www.w3.org/2000/svg"
 width="300.000000pt" height="240.000000pt" viewBox="0 0 300.000000 240.000000"
 preserveAspectRatio="xMidYMid meet">

<g transform="translate(0.000000,240.000000) scale(0.100000,-0.100000)"
fill="#000000" stroke="none">
<path d="M1166 1831 c-15 -6 -10 -10 27 -25 61 -23 110 -79 171 -197 65 -126
94 -166 163 -229 l58 -53 3 183 2 183 -32 28 c-49 43 -126 85 -187 103 -56 16
-171 20 -205 7z"/>
<path d="M1132 1612 c55 -58 101 -128 151 -228 37 -73 100 -139 144 -150 13
-4 23 -10 23 -14 0 -14 -74 11 -108 37 -18 13 -49 50 -70 81 -43 65 -67 76
-82 37 -26 -69 0 -155 58 -189 28 -16 52 -19 145 -18 l111 2 -34 -35 c-38 -39
-35 -40 57 -24 l63 11 0 57 0 57 -47 23 c-30 14 -77 54 -123 103 -155 167
-227 235 -280 267 l-55 34 47 -51z"/>
<path d="M1024 1602 c-33 -22 -45 -147 -20 -207 l15 -35 39 14 c140 50 151 82
61 180 -49 53 -71 65 -95 48z"/>
<path d="M530 880 c0 -99 0 -100 24 -100 21 0 25 5 28 38 3 35 5 37 41 40 23
2 37 8 37 17 0 9 -14 15 -37 17 -31 2 -39 7 -41 26 -3 20 1 22 43 22 39 0 46
3 43 18 -3 14 -16 18 -71 20 l-67 3 0 -101z"/>
<path d="M700 880 l0 -100 25 0 25 0 0 100 0 100 -25 0 -25 0 0 -100z"/>
<path d="M830 968 c-28 -15 -38 -52 -19 -74 7 -9 30 -24 51 -35 21 -11 38 -24
38 -30 0 -18 -31 -22 -49 -5 -17 15 -61 23 -61 10 0 -40 68 -71 118 -53 61 21
54 81 -14 110 -24 11 -44 26 -44 34 0 17 35 20 45 5 7 -12 55 -14 55 -2 0 38
-76 63 -120 40z"/>
<path d="M990 880 l0 -100 25 0 c23 0 25 4 25 40 0 39 1 40 35 40 34 0 35 -1
35 -40 0 -36 3 -40 25 -40 l25 0 0 100 0 100 -25 0 c-22 0 -25 -4 -25 -40 0
-39 -1 -40 -35 -40 -34 0 -35 1 -35 40 0 36 -2 40 -25 40 l-25 0 0 -100z"/>
<path d="M1287 973 c-4 -3 -7 -48 -7 -100 0 -93 0 -93 25 -93 24 0 25 3 26 63
l1 62 21 -62 c27 -81 48 -84 72 -10 26 78 38 82 29 10 l-7 -63 27 0 26 0 0
101 0 100 -32 -3 c-29 -3 -33 -8 -53 -67 -12 -36 -24 -61 -27 -55 -3 5 -13 35
-22 67 -15 52 -19 57 -45 57 -15 0 -31 -3 -34 -7z"/>
<path d="M1605 970 c-3 -5 -21 -50 -39 -100 l-34 -90 29 0 c19 0 29 5 29 15 0
11 11 15 35 15 22 0 38 -6 41 -15 4 -8 17 -15 31 -15 28 0 28 -3 -19 123 -22
58 -34 77 -48 77 -10 0 -22 -4 -25 -10z m37 -95 c4 -19 1 -25 -13 -25 -21 0
-22 4 -13 37 8 28 20 22 26 -12z"/>
<path d="M1758 974 c-5 -4 -8 -49 -8 -101 0 -92 0 -93 24 -93 20 0 25 6 28 32
4 44 21 45 41 3 13 -26 23 -35 42 -35 30 0 30 0 9 44 -16 32 -16 36 0 51 22
22 20 58 -4 80 -21 19 -119 33 -132 19z m100 -61 c2 -14 -3 -23 -17 -28 -28
-9 -41 1 -41 31 0 22 4 25 28 22 19 -2 28 -9 30 -25z"/>
<path d="M1950 880 c0 -99 0 -100 24 -100 19 0 25 6 28 27 4 37 20 38 41 3 12
-20 26 -30 43 -30 13 0 24 2 24 5 0 3 -12 27 -27 54 l-28 49 33 46 33 46 -30
0 c-25 0 -36 -8 -58 -42 l-28 -42 -3 42 c-3 37 -6 42 -28 42 -24 0 -24 -1 -24
-100z"/>
<path d="M2150 880 l0 -100 65 0 c58 0 65 2 65 20 0 17 -7 20 -45 20 -38 0
-45 3 -45 20 0 17 7 20 40 20 33 0 40 3 40 20 0 17 -7 20 -41 20 -33 0 -40 3
-37 18 2 12 15 18 46 20 34 3 42 7 42 23 0 17 -7 19 -65 19 l-65 0 0 -100z"/>
<path d="M2310 960 c0 -16 6 -20 30 -20 l30 0 0 -80 c0 -79 0 -80 25 -80 25 0
25 1 25 80 l0 80 31 0 c24 0 30 4 27 18 -3 14 -16 17 -86 20 -77 3 -82 2 -82
-18z"/>
<path d="M1823 635 c0 -27 2 -38 4 -22 2 15 2 37 0 50 -2 12 -4 0 -4 -28z"/>
<path d="M1913 635 c0 -27 2 -38 4 -22 2 15 2 37 0 50 -2 12 -4 0 -4 -28z"/>
<path d="M2053 635 c0 -27 2 -38 4 -22 2 15 2 37 0 50 -2 12 -4 0 -4 -28z"/>
<path d="M1181 634 c0 -11 3 -14 6 -6 3 7 2 16 -1 19 -3 4 -6 -2 -5 -13z"/>
<path d="M1230 636 c0 -2 9 -6 20 -9 11 -3 20 -1 20 4 0 5 -9 9 -20 9 -11 0
-20 -2 -20 -4z"/>
</g>
</svg>
