<?xml version="1.0" encoding="UTF-8" standalone="no" ?>
<!DOCTYPE svg PUBLIC "-//W3C//DTD SVG 1.1//EN" "http://www.w3.org/Graphics/SVG/1.1/DTD/svg11.dtd">
<svg xmlns="http://www.w3.org/2000/svg" xmlns:xlink="http://www.w3.org/1999/xlink" version="1.1" width="1200" height="500" viewBox="0 0 1200 500" xml:space="preserve">
<desc>Created with Fabric.js 5.2.4</desc>
<defs>
</defs>
<g transform="matrix(Infinity NaN NaN Infinity 0 0)" id="546df755-f3e0-44cd-be1b-b238b1679bc0"  >
</g>
<g transform="matrix(1 0 0 1 600 250)" id="19908b68-a260-47b4-95d8-f4cbaa21eb48"  >
<rect style="stroke: none; stroke-width: 1; stroke-dasharray: none; stroke-linecap: butt; stroke-dashoffset: 0; stroke-linejoin: miter; stroke-miterlimit: 4; fill: rgb(255,255,255); fill-rule: nonzero; opacity: 1; visibility: hidden;" vector-effect="non-scaling-stroke"  x="-600" y="-250" rx="0" ry="0" width="1200" height="500" />
</g>
<g transform="matrix(4.76 0 0 4.76 598.79 249.55)"  >
<g style="" vector-effect="non-scaling-stroke"   >
		<g transform="matrix(1 0 0 1 -90.49 0)"  >
<path style="stroke: none; stroke-width: 1; stroke-dasharray: none; stroke-linecap: butt; stroke-dashoffset: 0; stroke-linejoin: miter; stroke-miterlimit: 4; fill: rgb(0,0,0); fill-rule: nonzero; opacity: 1;" vector-effect="non-scaling-stroke"  transform=" translate(-56.55, -121.03)" d="M 48.77211 162.575684 C 45.002586 162.003754 41.943233 160.642166 39.087933 158.949097 C 36.021229 157.130692 36.178902 155.171494 39.264023 153.676865 C 45.285065 150.759888 45.514523 149.935089 42.035175 144.032333 C 41.444553 143.030334 40.873241 142.000534 40.441349 140.924042 C 36.965065 132.259491 34.215359 123.219948 26.132601 117.252663 C 24.645485 116.154762 22.940811 114.163528 23.982695 111.742706 C 24.909058 111.005142 25.69618 111.372543 26.419949 111.741997 C 32.688641 114.941933 33.120155 114.994843 33.83147 108.222794 C 35.431038 92.994186 45.361988 84.409065 57.585033 77.728348 C 63.542587 74.472145 70.105156 74.857826 76.504723 76.827118 C 78.1884 77.345222 80.093185 77.806 80.577179 79.961288 C 80.388329 80.282829 80.277138 80.744499 80.061401 80.800026 C 72.806892 82.667488 72.851761 82.622658 77.756699 88.419022 C 79.442009 90.410629 81.359497 92.397217 81.220802 95.403717 C 78.993027 97.160934 77.469719 95.307243 75.908852 94.342918 C 71.645302 91.708847 67.315483 89.332199 62.362846 88.150818 C 53.668419 86.076881 46.67395 91.215996 46.38863 100.17289 C 46.316795 102.428032 45.680183 104.795883 46.956684 106.946297 C 52.966488 106.048409 52.954685 106.047241 52.364563 112.024879 C 51.332088 122.48336 58.536858 127.255707 65.885567 131.964523 C 67.970238 130.981979 68.369316 129.21286 68.839119 127.43911 C 69.138412 126.309143 69.618195 125.161667 71.003845 124.999626 C 72.393074 124.837158 73.074165 125.875099 73.694191 126.871391 C 75.828468 130.300842 77.373611 134.069656 77.99231 137.977173 C 78.504501 141.21199 80.084579 143.376694 82.199051 145.580124 C 86.210899 149.760773 88.839645 154.686462 89.395744 160.574142 C 89.722122 164.029648 88.187729 165.85585 84.750519 166.349869 C 78.533371 167.243469 72.392776 166.648529 66.600494 164.510254 C 62.26276 162.908966 58.195999 161.736221 53.586262 163.118362 C 52.280205 163.509949 50.659897 162.853439 48.77211 162.575684 M 66.618561 146.090591 C 67.03981 146.794632 66.479805 148.400604 68.189034 147.921539 C 69.689636 147.500946 69.94091 146.587738 69.894539 144.929398 C 69.646736 136.068359 62.600079 133.364105 56.665791 128.900711 C 56.282757 132.012802 58.628922 133.81311 57.781349 137.418045 C 48.363464 130.897659 42.608208 122.560692 38.842911 112.261223 C 38.049759 114.292526 37.375229 115.811661 36.858967 117.382797 C 35.514278 121.475052 37.381752 125.199562 38.330872 129.012772 C 39.125416 132.204941 42.027184 130.268585 43.820911 131.107056 C 45.544804 131.912888 47.355911 132.822845 47.875763 134.586304 C 49.682838 140.716324 54.486183 141.438995 59.668591 141.398056 C 62.893162 141.372574 65.064384 142.674301 66.618561 146.090591 M 83.964241 164.323639 C 86.799294 163.567123 87.213135 161.854767 85.955627 159.413208 C 83.351547 154.357132 78.742645 151.695068 73.860115 149.470566 C 72.212776 148.720047 70.554222 149.469025 69.570312 151.089874 C 65.760811 157.365479 68.500328 163.021011 76.084053 164.095001 C 76.881378 162.460892 76.334534 159.555695 79.527191 159.701401 C 82.43483 159.834106 82.579041 162.261719 83.964241 164.323639 z" stroke-linecap="round" />
</g>
		<g transform="matrix(1 0 0 1 -12.73 1.88)"  >
<path style="stroke: none; stroke-width: 1; stroke-dasharray: none; stroke-linecap: butt; stroke-dashoffset: 0; stroke-linejoin: miter; stroke-miterlimit: 4; fill: rgb(0,0,0); fill-rule: nonzero; opacity: 1;" vector-effect="non-scaling-stroke"  transform=" translate(-134.32, -122.91)" d="M 138.354187 111.513046 C 146.034576 115.387245 148.276337 122.683136 144.226791 129.565674 C 141.115433 134.853683 133.47197 136.524796 127.99572 133.114319 C 122.133736 129.463608 120.641205 121.367989 124.766045 115.596298 C 127.705505 111.483246 132.415482 109.989182 138.354187 111.513046 M 140.016953 129.560913 C 140.811111 128.315903 141.87529 127.165382 142.350067 125.808601 C 143.938995 121.267937 142.252243 117.045387 138.161194 114.757607 C 134.352737 112.627869 130.549789 113.469688 127.602859 117.094765 C 124.716522 120.645294 124.824532 125.28389 127.878578 128.936432 C 130.693481 132.302948 134.755463 132.708466 140.016953 129.560913 z" stroke-linecap="round" />
</g>
		<g transform="matrix(1 0 0 1 85.52 1.66)"  >
<path style="stroke: none; stroke-width: 1; stroke-dasharray: none; stroke-linecap: butt; stroke-dashoffset: 0; stroke-linejoin: miter; stroke-miterlimit: 4; fill: rgb(0,0,0); fill-rule: nonzero; opacity: 1;" vector-effect="non-scaling-stroke"  transform=" translate(-232.56, -122.7)" d="M 230.560638 134.677551 C 223.461716 132.388657 220.059586 127.597878 220.724213 121.264534 C 221.277527 115.991898 225.74263 111.493286 231.176178 110.734154 C 236.363434 110.009422 241.883316 113.348511 243.752655 118.549408 C 246.417374 125.963158 241.704666 135.733734 230.560638 134.677551 M 226.319992 129.105072 C 230.742599 132.554367 235.133942 132.803329 238.411606 129.790588 C 241.866562 126.614891 242.288483 120.98761 239.361191 117.125641 C 236.721329 113.642868 232.539383 112.695854 228.799011 114.733818 C 224.401596 117.129776 223.014389 121.396172 224.931442 126.726768 C 225.153687 127.344742 225.537201 127.904724 226.319992 129.105072 z" stroke-linecap="round" />
</g>
		<g transform="matrix(1 0 0 1 -39.68 1.85)"  >
<path style="stroke: none; stroke-width: 1; stroke-dasharray: none; stroke-linecap: butt; stroke-dashoffset: 0; stroke-linejoin: miter; stroke-miterlimit: 4; fill: rgb(0,0,0); fill-rule: nonzero; opacity: 1;" vector-effect="non-scaling-stroke"  transform=" translate(-107.36, -122.88)" d="M 107.391983 119.382507 C 104.86998 121.587753 105.137375 123.372169 107.143166 125.488579 C 109.761284 128.251053 112.340393 131.024292 116.073357 133.397049 C 112.707939 135.255508 110.823296 133.607864 108.862518 131.868225 C 107.048332 130.258652 105.995277 127.790466 103.447609 126.902695 C 100.927162 128.616516 103.500511 132.348862 99.541901 134.481659 C 98.253319 126.518623 98.528091 119.191811 99.342926 111.277489 C 101.587013 113.202469 101.587013 113.202469 102.936401 118.862946 C 106.855873 117.480675 107.771393 112.19072 112.71151 111.368958 C 112.36512 115.193886 109.324539 116.740372 107.391983 119.382507 z" stroke-linecap="round" />
</g>
		<g transform="matrix(1 0 0 1 32.84 1.72)"  >
<path style="stroke: none; stroke-width: 1; stroke-dasharray: none; stroke-linecap: butt; stroke-dashoffset: 0; stroke-linejoin: miter; stroke-miterlimit: 4; fill: rgb(0,0,0); fill-rule: nonzero; opacity: 1;" vector-effect="non-scaling-stroke"  transform=" translate(-179.89, -122.75)" d="M 180.394897 120.621109 C 181.471207 121.449173 182.289352 122.026657 183.040344 122.681221 C 186.669327 125.844254 187.467499 129.89473 185.03653 132.67984 C 182.168045 135.966217 176.914886 135.822296 173.348267 132.316498 C 174.498001 130.58902 176.044235 131.687164 177.396271 131.798294 C 179.61525 131.980713 181.905945 132.238174 182.931168 129.688766 C 183.885376 127.315933 182.090195 126.035606 180.502548 124.781631 C 179.328568 123.854385 178.084671 123.006752 176.974014 122.009888 C 173.329468 118.738724 172.68811 115.149551 175.203217 112.493042 C 177.929672 109.613304 182.020813 109.757179 185.834106 113.046928 C 183.487457 115.488106 178.702118 111.299461 177.480072 115.935257 C 176.931747 118.015244 178.769028 119.175957 180.394897 120.621109 z" stroke-linecap="round" />
</g>
		<g transform="matrix(1 0 0 1 116.51 1.68)"  >
<path style="stroke: none; stroke-width: 1; stroke-dasharray: none; stroke-linecap: butt; stroke-dashoffset: 0; stroke-linejoin: miter; stroke-miterlimit: 4; fill: rgb(0,0,0); fill-rule: nonzero; opacity: 1;" vector-effect="non-scaling-stroke"  transform=" translate(-263.55, -122.71)" d="M 256.682587 122.989655 C 256.688019 120.673737 256.644226 118.846466 256.707581 117.022919 C 256.795898 114.482285 255.942749 111.296783 259.970032 110.981201 C 263.704651 110.688553 267.465302 110.887466 269.519135 114.721619 C 271.26535 117.981476 270.468048 121.351181 267.406799 122.987617 C 262.809692 125.445099 257.351135 126.710144 258.886169 134.526367 C 255.859924 130.705856 256.990387 126.962326 256.682587 122.989655 M 266.381195 119.653473 C 267.457825 116.785728 266.650482 114.82225 263.635712 113.903099 C 262.106171 113.436768 260.434662 113.231392 259.840698 115.023941 C 259.054596 117.396477 258.74295 120.349045 260.569305 122.029686 C 262.50592 123.811783 264.497742 121.943047 266.381195 119.653473 z" stroke-linecap="round" />
</g>
		<g transform="matrix(1 0 0 1 56.49 1.29)"  >
<path style="stroke: none; stroke-width: 1; stroke-dasharray: none; stroke-linecap: butt; stroke-dashoffset: 0; stroke-linejoin: miter; stroke-miterlimit: 4; fill: rgb(0,0,0); fill-rule: nonzero; opacity: 1;" vector-effect="non-scaling-stroke"  transform=" translate(-203.54, -122.33)" d="M 202.631607 118.402435 C 203.232132 112.135201 196.952377 115.545692 194.846375 111.887123 C 200.934006 110.334206 206.48468 110.501915 212.23114 111.718178 C 211.992889 112.610756 211.935532 113.168045 211.828461 113.177773 C 205.929565 113.713425 205.179245 117.289932 205.700119 122.384613 C 206.085129 126.150291 205.300735 130.035522 204.097321 133.887009 C 202.057602 128.990036 202.883194 123.8592 202.631607 118.402435 z" stroke-linecap="round" />
</g>
		<g transform="matrix(1 0 0 1 12.96 1.74)"  >
<path style="stroke: none; stroke-width: 1; stroke-dasharray: none; stroke-linecap: butt; stroke-dashoffset: 0; stroke-linejoin: miter; stroke-miterlimit: 4; fill: rgb(0,0,0); fill-rule: nonzero; opacity: 1;" vector-effect="non-scaling-stroke"  transform=" translate(-160.01, -122.77)" d="M 161.323914 113.683273 C 161.370941 120.654533 161.370941 127.200279 161.370941 133.548325 C 159.115738 134.034988 158.748749 133.042099 158.736862 132.018555 C 158.667404 126.037956 158.601105 120.055275 158.695953 114.075874 C 158.730713 111.885933 159.496078 110.621811 161.323914 113.683273 z" stroke-linecap="round" />
</g>
</g>
</g>
</svg>