<svg version="1.1" id="Layer_1" xmlns="http://www.w3.org/2000/svg" xmlns:xlink="http://www.w3.org/1999/xlink" x="0px" y="0px"
	 width="100%" viewBox="0 0 300 240" enable-background="new 0 0 300 240" xml:space="preserve">
<path fill="#E2EEF0" opacity="1.000000" stroke="none" 
	d="
M206.000000,241.000000 
	C137.333344,241.000000 69.166679,241.000000 1.000018,241.000000 
	C1.000012,161.000015 1.000012,81.000038 1.000006,1.000040 
	C100.999969,1.000026 200.999939,1.000026 300.999939,1.000013 
	C300.999939,80.999962 300.999939,160.999924 300.999969,240.999939 
	C269.500000,241.000000 238.000000,241.000000 206.000000,241.000000 
M192.728928,112.981644 
	C195.409576,111.659103 198.090240,110.336563 200.770889,109.014030 
	C200.720642,108.602791 200.670395,108.191544 200.620148,107.780304 
	C197.756104,106.830238 194.892059,105.880173 191.567017,104.451324 
	C189.364029,103.340607 187.161057,102.229889 184.554062,100.613327 
	C182.885971,99.305496 181.217865,97.997665 179.198700,96.107544 
	C177.535629,94.051559 175.872574,91.995583 174.014206,89.264465 
	C171.347153,85.495804 168.680099,81.727135 165.793289,77.373093 
	C164.656235,76.183380 163.519180,74.993668 162.086731,73.197929 
	C160.068390,71.432968 158.050064,69.668007 155.703491,67.332596 
	C153.837021,66.133575 151.970566,64.934563 149.690063,63.219296 
	C147.457123,62.184486 145.224167,61.149677 142.377075,59.713005 
	C140.251373,59.141476 138.125656,58.569946 135.482254,57.684978 
	C121.671921,56.168175 120.468468,56.237320 115.365845,59.314098 
	C125.590027,60.737999 130.193695,68.053841 134.972763,75.979027 
	C136.945908,79.730965 138.919052,83.482903 141.001175,87.914345 
	C143.669662,91.600014 146.338150,95.285683 149.229080,99.570473 
	C150.448807,100.727119 151.668533,101.883774 153.234741,103.617958 
	C155.436295,105.212234 157.637863,106.806511 160.258423,108.886360 
	C161.823883,109.635284 163.389359,110.384209 165.402618,111.652771 
	C167.597519,112.359833 169.792419,113.066887 172.723480,113.995094 
	C174.474670,114.245590 176.225845,114.496094 178.840714,114.930115 
	C180.887405,114.856102 182.934097,114.782082 185.727310,114.804390 
	C187.816360,114.198341 189.905396,113.592293 192.728928,112.981644 
M175.056854,120.431107 
	C170.703598,119.628204 166.350357,118.825310 161.432159,117.612198 
	C157.948242,115.812141 154.464325,114.012085 150.461777,111.751251 
	C148.687225,110.384216 146.912659,109.017181 144.863571,107.078918 
	C143.239441,105.387115 141.615311,103.695312 139.768524,101.372070 
	C137.555466,98.835365 135.342422,96.298653 132.886368,93.151108 
	C126.092506,87.584572 119.298653,82.018036 112.074867,76.128494 
	C111.821785,76.170235 111.568703,76.211983 111.315620,76.253723 
	C111.513573,76.530243 111.711517,76.806763 112.148491,77.712334 
	C118.055664,86.492241 123.962845,95.272148 129.963272,104.755386 
	C132.334106,107.824043 134.704941,110.892708 137.465881,114.397209 
	C137.975296,115.652405 138.484726,116.907600 138.399292,117.858795 
	C136.565262,116.440002 134.731216,115.021202 132.510696,112.995544 
	C130.308792,109.713463 128.204208,106.360428 125.877548,103.169296 
	C123.559799,99.990387 121.081047,100.262985 119.645866,103.678619 
	C115.789902,112.855530 121.185760,122.605202 131.615280,124.579994 
	C133.742767,124.619919 135.870255,124.659843 138.747086,124.831596 
	C140.499359,124.573814 142.251617,124.316032 144.844467,124.191750 
	C146.542877,124.191559 148.241302,124.191376 149.676224,124.781502 
	C147.931290,126.896233 146.186356,129.010956 143.678207,132.050644 
	C150.493790,130.793320 156.228485,129.735382 162.731171,128.703613 
	C167.151184,127.461281 171.571198,126.218948 176.747009,124.988213 
	C180.153107,123.473785 183.559219,121.959358 186.965332,120.444931 
	C186.774536,119.939636 186.583725,119.434334 186.392929,118.929031 
	C182.891418,119.513000 179.389893,120.096977 175.056854,120.431107 
M192.397186,101.890526 
	C195.416138,102.902946 198.435089,103.915367 202.300583,105.211685 
	C200.768234,96.857086 198.139084,90.280312 192.919174,84.139977 
	C191.266861,82.431244 189.614548,80.722511 187.664581,78.416832 
	C181.691559,73.052612 175.095078,69.021980 166.912903,68.259918 
	C174.102112,72.713188 177.819107,79.319473 180.155243,87.053719 
	C180.997894,89.843460 182.585602,92.408150 184.146332,95.682495 
	C186.736832,97.596947 189.327347,99.511406 192.397186,101.890526 
M111.720329,101.977661 
	C120.893600,97.484680 121.371132,95.378197 114.951355,87.385437 
	C114.138268,86.373123 113.129921,85.517632 111.917084,83.985046 
	C110.980545,83.075462 110.094490,82.105858 109.097878,81.267708 
	C106.259354,78.880554 103.318558,79.320641 101.830765,82.637459 
	C98.446220,90.182777 98.873466,97.598572 102.933563,105.347847 
	C105.896759,104.124794 108.451370,103.070389 111.720329,101.977661 
M151.395355,154.424316 
	C151.395355,150.789734 151.395355,147.155136 151.395355,143.681976 
	C146.092621,141.857819 143.484528,143.555069 142.697540,148.643784 
	C142.369919,150.762253 141.317642,152.768646 140.185699,155.990677 
	C139.118286,152.643356 138.161880,150.511078 137.782333,148.280640 
	C136.882675,142.993454 133.837189,142.194626 129.284210,143.589783 
	C129.284210,150.440735 129.284210,157.040817 129.284210,163.732666 
	C136.725052,165.136612 132.447144,158.094208 135.441437,155.446335 
	C136.278717,157.506516 136.765717,159.193100 137.625290,160.661591 
	C138.283524,161.786102 139.412399,162.635147 140.331940,163.606705 
	C141.224655,162.581390 142.383713,161.683823 142.950500,160.502182 
	C143.909409,158.502991 144.493896,156.324188 145.235794,154.220901 
	C145.545303,154.294220 145.854797,154.367523 146.164307,154.440842 
	C146.164307,157.331146 146.164307,160.221451 146.164307,163.582352 
	C148.065903,163.486465 149.581314,163.410034 151.394836,163.318588 
	C151.394836,160.320068 151.394836,157.845093 151.395355,154.424316 
M116.389618,143.348419 
	C114.959747,143.348419 113.529884,143.348419 111.970253,143.348419 
	C111.804565,145.937988 111.657837,148.231232 111.501495,150.674805 
	C109.303078,150.674805 107.264992,150.674805 105.188774,150.674805 
	C105.046478,148.063614 104.922432,145.787308 104.777061,143.119629 
	C102.993843,143.221939 101.487595,143.308365 99.992706,143.394135 
	C99.992706,150.323135 99.992706,156.743576 99.992706,163.596420 
	C101.800377,163.497375 103.332253,163.413452 104.811417,163.332428 
	C104.986389,160.346786 105.129120,157.911362 105.253159,155.794754 
	C113.934898,152.817810 110.903671,160.052994 112.287140,163.608078 
	C113.873657,163.498871 115.273415,163.402496 116.854065,163.293686 
	C116.854065,156.659637 116.854065,150.383926 116.389618,143.348419 
M181.241760,162.678299 
	C181.507950,160.732605 181.774124,158.786896 182.113708,156.304535 
	C186.132889,158.733704 185.639374,166.097031 192.469910,162.978287 
	C191.301865,160.500778 190.126312,158.007309 188.931183,155.472351 
	C191.842728,152.799118 193.570831,149.513367 191.034576,146.202148 
	C187.126678,141.100128 181.465714,143.594711 176.279541,143.171387 
	C176.279541,150.215927 176.279541,156.621933 176.279541,163.548447 
	C177.938293,163.462067 179.349625,163.388565 181.241760,162.678299 
M195.920456,147.703293 
	C195.920456,152.830307 195.920456,157.957321 195.920456,163.350433 
	C197.797043,163.350433 199.209991,163.350433 200.556488,163.350433 
	C201.128845,161.146317 201.657471,159.110672 202.371216,156.362076 
	C205.675415,159.922226 206.312683,165.961548 212.789001,162.941635 
	C210.897858,159.613052 207.660522,156.368195 207.560043,153.028946 
	C207.464905,149.866928 210.660263,146.605942 212.328842,143.535080 
	C205.876266,140.471634 205.064407,147.411011 201.393097,150.029144 
	C201.154297,147.427795 200.966202,145.378830 200.783646,143.390274 
	C196.410767,143.199387 196.410767,143.199387 195.920456,147.703293 
M172.346680,159.768845 
	C170.580658,154.951874 168.938492,150.082779 166.950836,145.359070 
	C166.519852,144.334839 164.853104,143.260544 163.747269,143.251770 
	C162.656036,143.243073 160.963303,144.316833 160.554794,145.327957 
	C158.214981,151.119476 156.179169,157.033813 153.607346,164.094757 
	C156.283096,163.429794 158.478973,163.522003 159.657257,162.472137 
	C163.247894,159.272812 164.206711,159.251389 167.997116,162.580383 
	C169.005646,163.466141 170.983170,163.248566 172.515808,163.537552 
	C172.565933,162.497849 172.616058,161.458145 172.346680,159.768845 
M227.900116,151.685776 
	C227.771790,151.579712 227.659988,151.424606 227.512650,151.374954 
	C225.297134,150.628479 223.076920,149.895859 220.857819,149.159988 
	C223.042953,148.595459 225.273804,148.159149 227.391037,147.404160 
	C228.255249,147.095993 229.413803,146.126617 229.452942,145.404633 
	C229.492996,144.665604 228.359482,143.224777 227.682816,143.189774 
	C223.617630,142.979446 219.536087,143.085358 215.462860,143.085358 
	C215.462860,150.309311 215.462860,156.722366 215.462860,163.073532 
	C226.445236,165.011200 229.625168,164.132599 228.835251,159.278595 
	C226.291733,159.152252 223.696106,159.023315 221.100494,158.894379 
	C220.861847,158.392990 220.623184,157.891586 220.384537,157.390198 
	C221.587341,156.637833 222.705429,155.625717 224.014389,155.198898 
	C225.649887,154.665573 228.379929,156.105835 227.900116,151.685776 
M80.778603,149.279861 
	C84.082031,152.297089 87.385460,155.314331 90.688889,158.331558 
	C90.598846,158.698868 90.508797,159.066162 90.418755,159.433456 
	C87.103790,158.481995 83.788818,157.530518 79.270653,156.233704 
	C80.442886,158.754272 80.705994,159.981689 81.438133,160.777664 
	C84.326485,163.917877 88.081635,164.831573 91.855019,163.149307 
	C93.627602,162.359039 95.601486,160.167328 95.920158,158.338211 
	C96.683197,153.958572 92.968765,152.593994 89.718300,151.157333 
	C88.372635,150.562592 87.116409,149.765503 85.819504,149.060425 
	C86.011162,148.503769 86.202820,147.947128 86.394478,147.390488 
	C89.527267,148.037125 92.660057,148.683777 96.556267,149.487991 
	C95.037636,144.151154 92.105438,142.822006 88.256805,142.968491 
	C84.508400,143.111176 81.294563,144.094711 80.778603,149.279861 
M56.428394,163.651505 
	C62.319431,163.503281 57.537651,157.977203 59.975368,156.384842 
	C62.210625,154.603745 67.921295,158.280930 66.807533,151.579575 
	C65.218811,151.483475 63.868027,151.593903 62.631485,151.269226 
	C61.543686,150.983597 60.583721,150.211121 59.567303,149.653656 
	C60.598167,148.926117 61.542019,147.830383 62.681198,147.561172 
	C64.217781,147.198059 65.904678,147.471024 67.503365,147.471024 
	C67.702026,142.695435 63.924282,141.760574 54.034672,143.793182 
	C54.034672,149.634338 53.981728,155.565384 54.103943,161.492798 
	C54.118660,162.206619 55.081936,162.900894 56.428394,163.651505 
M245.117615,147.459427 
	C248.956528,146.973831 248.956528,146.973831 248.113266,143.281357 
	C242.855774,143.281357 237.579773,143.281357 232.334900,143.281357 
	C229.832764,149.113480 235.671204,146.468338 237.564301,148.760971 
	C237.564301,153.167328 237.564301,158.103867 237.564301,163.240723 
	C239.585953,163.240723 241.110046,163.240723 242.935577,163.240723 
	C242.935577,160.713943 242.777313,158.552353 242.973801,156.423492 
	C243.247894,153.453476 243.787094,150.507919 245.117615,147.459427 
M72.555458,163.580734 
	C75.266632,164.035004 76.517036,163.149460 76.392448,160.146194 
	C76.178917,154.998779 76.306335,149.837601 76.249840,144.682663 
	C76.245026,144.243317 75.934860,143.807312 75.672264,143.124649 
	C74.240189,143.201614 72.830376,143.277390 70.720551,143.390793 
	C71.076683,150.266251 71.415596,156.809097 72.555458,163.580734 
z"/>
<path fill="#176989" opacity="1.000000" stroke="none" 
	d="
M151.395096,154.897217 
	C151.394836,157.845093 151.394836,160.320068 151.394836,163.318588 
	C149.581314,163.410034 148.065903,163.486465 146.164307,163.582352 
	C146.164307,160.221451 146.164307,157.331146 146.164307,154.440842 
	C145.854797,154.367523 145.545303,154.294220 145.235794,154.220901 
	C144.493896,156.324188 143.909409,158.502991 142.950500,160.502182 
	C142.383713,161.683823 141.224655,162.581390 140.331940,163.606705 
	C139.412399,162.635147 138.283524,161.786102 137.625290,160.661591 
	C136.765717,159.193100 136.278717,157.506516 135.441437,155.446335 
	C132.447144,158.094208 136.725052,165.136612 129.284210,163.732666 
	C129.284210,157.040817 129.284210,150.440735 129.284210,143.589783 
	C133.837189,142.194626 136.882675,142.993454 137.782333,148.280640 
	C138.161880,150.511078 139.118286,152.643356 140.185699,155.990677 
	C141.317642,152.768646 142.369919,150.762253 142.697540,148.643784 
	C143.484528,143.555069 146.092621,141.857819 151.395355,143.681976 
	C151.395355,147.155136 151.395355,150.789734 151.395096,154.897217 
z"/>
<path fill="#136687" opacity="1.000000" stroke="none" 
	d="
M116.621841,143.728302 
	C116.854065,150.383926 116.854065,156.659637 116.854065,163.293686 
	C115.273415,163.402496 113.873657,163.498871 112.287140,163.608078 
	C110.903671,160.052994 113.934898,152.817810 105.253159,155.794754 
	C105.129120,157.911362 104.986389,160.346786 104.811417,163.332428 
	C103.332253,163.413452 101.800377,163.497375 99.992706,163.596420 
	C99.992706,156.743576 99.992706,150.323135 99.992706,143.394135 
	C101.487595,143.308365 102.993843,143.221939 104.777061,143.119629 
	C104.922432,145.787308 105.046478,148.063614 105.188774,150.674805 
	C107.264992,150.674805 109.303078,150.674805 111.501495,150.674805 
	C111.657837,148.231232 111.804565,145.937988 111.970253,143.348419 
	C113.529884,143.348419 114.959747,143.348419 116.621841,143.728302 
z"/>
<path fill="#196A8A" opacity="1.000000" stroke="none" 
	d="
M181.001358,162.996674 
	C179.349625,163.388565 177.938293,163.462067 176.279541,163.548447 
	C176.279541,156.621933 176.279541,150.215927 176.279541,143.171387 
	C181.465714,143.594711 187.126678,141.100128 191.034576,146.202148 
	C193.570831,149.513367 191.842728,152.799118 188.931183,155.472351 
	C190.126312,158.007309 191.301865,160.500778 192.469910,162.978287 
	C185.639374,166.097031 186.132889,158.733704 182.113708,156.304535 
	C181.774124,158.786896 181.507950,160.732605 181.001358,162.996674 
M181.277679,150.562973 
	C182.994354,150.760864 184.711014,150.958755 186.427689,151.156662 
	C186.114334,150.030640 186.139267,148.296631 185.421585,147.897308 
	C183.574448,146.869537 181.434814,146.510056 181.277679,150.562973 
z"/>
<path fill="#0B6081" opacity="1.000000" stroke="none" 
	d="
M111.005974,102.015976 
	C108.451370,103.070389 105.896759,104.124794 102.933563,105.347847 
	C98.873466,97.598572 98.446220,90.182777 101.830765,82.637459 
	C103.318558,79.320641 106.259354,78.880554 109.097878,81.267708 
	C110.094490,82.105858 110.980545,83.075462 111.882141,84.697510 
	C111.566788,90.945305 111.286385,96.480637 111.005974,102.015976 
z"/>
<path fill="#2F84A5" opacity="1.000000" stroke="none" 
	d="
M149.006638,98.971352 
	C146.338150,95.285683 143.669662,91.600014 141.128510,87.212341 
	C141.837357,84.510849 142.858658,82.524788 142.920258,80.509399 
	C143.127853,73.716843 142.994293,66.913864 142.991226,60.114868 
	C145.224167,61.149677 147.457123,62.184486 149.867584,63.964737 
	C150.030075,67.867043 150.093750,71.026634 149.984711,74.180244 
	C149.698914,82.445335 149.337753,90.707825 149.006638,98.971352 
z"/>
<path fill="#176989" opacity="1.000000" stroke="none" 
	d="
M195.920807,147.232025 
	C196.410767,143.199387 196.410767,143.199387 200.783646,143.390274 
	C200.966202,145.378830 201.154297,147.427795 201.393097,150.029144 
	C205.064407,147.411011 205.876266,140.471634 212.328842,143.535080 
	C210.660263,146.605942 207.464905,149.866928 207.560043,153.028946 
	C207.660522,156.368195 210.897858,159.613052 212.789001,162.941635 
	C206.312683,165.961548 205.675415,159.922226 202.371216,156.362076 
	C201.657471,159.110672 201.128845,161.146317 200.556488,163.350433 
	C199.209991,163.350433 197.797043,163.350433 195.920456,163.350433 
	C195.920456,157.957321 195.920456,152.830307 195.920807,147.232025 
z"/>
<path fill="#196A8A" opacity="1.000000" stroke="none" 
	d="
M172.506439,160.093643 
	C172.616058,161.458145 172.565933,162.497849 172.515808,163.537567 
	C170.983170,163.248566 169.005646,163.466141 167.997116,162.580383 
	C164.206711,159.251389 163.247894,159.272812 159.657257,162.472137 
	C158.478973,163.522003 156.283096,163.429794 153.607346,164.094757 
	C156.179169,157.033813 158.214981,151.119476 160.554794,145.327957 
	C160.963303,144.316833 162.656036,143.243073 163.747269,143.251770 
	C164.853104,143.260544 166.519852,144.334839 166.950836,145.359070 
	C168.938492,150.082779 170.580658,154.951874 172.506439,160.093643 
z"/>
<path fill="#206F8E" opacity="1.000000" stroke="none" 
	d="
M227.976776,152.133728 
	C228.379929,156.105835 225.649887,154.665573 224.014389,155.198898 
	C222.705429,155.625717 221.587341,156.637833 220.384537,157.390198 
	C220.623184,157.891586 220.861847,158.392990 221.100494,158.894379 
	C223.696106,159.023315 226.291733,159.152252 228.835251,159.278595 
	C229.625168,164.132599 226.445236,165.011200 215.462860,163.073532 
	C215.462860,156.722366 215.462860,150.309311 215.462860,143.085358 
	C219.536087,143.085358 223.617630,142.979446 227.682816,143.189774 
	C228.359482,143.224777 229.492996,144.665604 229.452942,145.404633 
	C229.413803,146.126617 228.255249,147.095993 227.391037,147.404160 
	C225.273804,148.159149 223.042953,148.595459 220.857819,149.159973 
	C223.076920,149.895859 225.297134,150.628479 227.512650,151.374954 
	C227.659988,151.424606 227.771790,151.579712 227.976776,152.133728 
z"/>
<path fill="#176989" opacity="1.000000" stroke="none" 
	d="
M80.767105,148.931915 
	C81.294563,144.094711 84.508400,143.111176 88.256805,142.968491 
	C92.105438,142.822006 95.037636,144.151154 96.556267,149.487991 
	C92.660057,148.683777 89.527267,148.037125 86.394478,147.390488 
	C86.202820,147.947128 86.011162,148.503769 85.819504,149.060425 
	C87.116409,149.765503 88.372635,150.562592 89.718300,151.157333 
	C92.968765,152.593994 96.683197,153.958572 95.920158,158.338211 
	C95.601486,160.167328 93.627602,162.359039 91.855019,163.149307 
	C88.081635,164.831573 84.326485,163.917877 81.438133,160.777664 
	C80.705994,159.981689 80.442886,158.754272 79.270653,156.233704 
	C83.788818,157.530518 87.103790,158.481995 90.418755,159.433456 
	C90.508797,159.066162 90.598846,158.698868 90.688889,158.331558 
	C87.385460,155.314331 84.082031,152.297089 80.767105,148.931915 
z"/>
<path fill="#398EB0" opacity="1.000000" stroke="none" 
	d="
M159.839417,108.400787 
	C157.637863,106.806511 155.436295,105.212234 153.458710,103.221588 
	C154.121979,101.025253 154.866470,99.239281 154.949738,97.422989 
	C155.400665,87.587143 155.688004,77.743805 156.031723,67.903046 
	C158.050064,69.668007 160.068390,71.432968 161.890472,73.785530 
	C161.462814,82.794006 161.308884,91.218117 160.957840,99.633995 
	C160.835510,102.566711 160.226288,105.479111 159.839417,108.400787 
z"/>
<path fill="#1E7293" opacity="1.000000" stroke="none" 
	d="
M130.972107,124.143761 
	C121.185760,122.605202 115.789902,112.855530 119.645866,103.678619 
	C121.081047,100.262985 123.559799,99.990387 125.877548,103.169296 
	C128.204208,106.360428 130.308792,109.713463 132.296402,113.539330 
	C131.712112,117.436661 131.342117,120.790215 130.972107,124.143761 
z"/>
<path fill="#388CAD" opacity="1.000000" stroke="none" 
	d="
M161.963165,128.677460 
	C156.228485,129.735382 150.493790,130.793320 143.678207,132.050644 
	C146.186356,129.010956 147.931290,126.896233 149.825592,124.026711 
	C150.310120,119.585289 150.645264,115.898651 150.980408,112.212021 
	C154.464325,114.012085 157.948242,115.812141 161.716202,118.268440 
	C161.987885,122.175606 161.975525,125.426521 161.963165,128.677460 
z"/>
<path fill="#1C6C8B" opacity="1.000000" stroke="none" 
	d="
M56.016983,163.627869 
	C55.081936,162.900894 54.118660,162.206619 54.103943,161.492798 
	C53.981728,155.565384 54.034672,149.634338 54.034672,143.793182 
	C63.924282,141.760574 67.702026,142.695435 67.503365,147.471024 
	C65.904678,147.471024 64.217781,147.198059 62.681198,147.561172 
	C61.542019,147.830383 60.598167,148.926117 59.567299,149.653656 
	C60.583721,150.211121 61.543686,150.983597 62.631485,151.269226 
	C63.868027,151.593903 65.218811,151.483475 66.807533,151.579575 
	C67.921295,158.280930 62.210625,154.603745 59.975368,156.384842 
	C57.537651,157.977203 62.319431,163.503281 56.016983,163.627869 
z"/>
<path fill="#4498BA" opacity="1.000000" stroke="none" 
	d="
M171.987320,113.773941 
	C169.792419,113.066887 167.597519,112.359833 165.245880,110.969414 
	C165.392761,108.165085 165.933044,106.046951 165.958542,103.922646 
	C166.062454,95.268944 166.008713,86.613358 166.013062,77.958466 
	C168.680099,81.727135 171.347153,85.495804 173.705002,89.705490 
	C172.930756,91.600235 172.098633,93.045296 172.064072,94.509178 
	C171.912506,100.927795 171.991776,107.351852 171.987320,113.773941 
z"/>
<path fill="#3489AB" opacity="1.000000" stroke="none" 
	d="
M155.867615,67.617821 
	C155.688004,77.743805 155.400665,87.587143 154.949738,97.422989 
	C154.866470,99.239281 154.121979,101.025253 153.285461,102.932831 
	C151.668533,101.883774 150.448807,100.727119 149.117859,99.270912 
	C149.337753,90.707825 149.698914,82.445335 149.984711,74.180244 
	C150.093750,71.026634 150.030075,67.867043 150.074615,64.222862 
	C151.970566,64.934563 153.837021,66.133575 155.867615,67.617821 
z"/>
<path fill="#52A5C6" opacity="1.000000" stroke="none" 
	d="
M183.833313,95.075546 
	C182.585602,92.408150 180.997894,89.843460 180.155243,87.053719 
	C177.819107,79.319473 174.102112,72.713188 166.912903,68.259918 
	C175.095078,69.021980 181.691559,73.052612 187.479309,78.920700 
	C186.862656,83.063408 186.590668,86.731590 185.928711,90.327995 
	C185.624100,91.982994 184.555496,93.497383 183.833313,95.075546 
z"/>
<path fill="#176989" opacity="1.000000" stroke="none" 
	d="
M244.665237,147.505661 
	C243.787094,150.507919 243.247894,153.453476 242.973801,156.423492 
	C242.777313,158.552353 242.935577,160.713943 242.935577,163.240723 
	C241.110046,163.240723 239.585953,163.240723 237.564301,163.240723 
	C237.564301,158.103867 237.564301,153.167328 237.564301,148.760971 
	C235.671204,146.468338 229.832764,149.113480 232.334900,143.281357 
	C237.579773,143.281357 242.855774,143.281357 248.113266,143.281357 
	C248.956528,146.973831 248.956528,146.973831 244.665237,147.505661 
z"/>
<path fill="#287D9F" opacity="1.000000" stroke="none" 
	d="
M142.684143,59.913940 
	C142.994293,66.913864 143.127853,73.716843 142.920258,80.509399 
	C142.858658,82.524788 141.837357,84.510849 141.074005,86.872597 
	C138.919052,83.482903 136.945908,79.730965 135.094543,75.229424 
	C135.477524,68.986015 135.738739,63.492214 135.999939,57.998413 
	C138.125656,58.569946 140.251373,59.141476 142.684143,59.913940 
z"/>
<path fill="#237697" opacity="1.000000" stroke="none" 
	d="
M135.741089,57.841698 
	C135.738739,63.492214 135.477524,68.986015 135.042694,74.884262 
	C130.193695,68.053841 125.590027,60.737999 115.365845,59.314098 
	C120.468468,56.237320 121.671921,56.168175 135.741089,57.841698 
z"/>
<path fill="#3E93B4" opacity="1.000000" stroke="none" 
	d="
M165.903168,77.665779 
	C166.008713,86.613358 166.062454,95.268944 165.958542,103.922646 
	C165.933044,106.046951 165.392761,108.165085 165.021988,110.709595 
	C163.389359,110.384209 161.823883,109.635284 160.048920,108.643570 
	C160.226288,105.479111 160.835510,102.566711 160.957840,99.633995 
	C161.308884,91.218117 161.462814,82.794006 162.038177,74.088547 
	C163.519180,74.993668 164.656235,76.183380 165.903168,77.665779 
z"/>
<path fill="#217495" opacity="1.000000" stroke="none" 
	d="
M129.870026,104.052055 
	C123.962845,95.272148 118.055664,86.492241 112.184265,77.245956 
	C112.220047,76.779572 112.504799,76.451492 112.504799,76.451492 
	C119.298653,82.018036 126.092506,87.584572 132.834015,93.843697 
	C132.521179,96.457336 132.454987,98.433029 131.935272,100.281189 
	C131.557266,101.625435 130.580078,102.801186 129.870026,104.052055 
z"/>
<path fill="#499DBF" opacity="1.000000" stroke="none" 
	d="
M172.355408,113.884521 
	C171.991776,107.351852 171.912506,100.927795 172.064072,94.509178 
	C172.098633,93.045296 172.930756,91.600235 173.802643,90.043060 
	C175.872574,91.995583 177.535629,94.051559 179.004028,96.682533 
	C178.531906,103.087212 178.254471,108.916901 177.977036,114.746597 
	C176.225845,114.496094 174.474670,114.245590 172.355408,113.884521 
z"/>
<path fill="#57AACB" opacity="1.000000" stroke="none" 
	d="
M183.989822,95.379013 
	C184.555496,93.497383 185.624100,91.982994 185.928711,90.327995 
	C186.590668,86.731590 186.862656,83.063408 187.628128,79.219170 
	C189.614548,80.722511 191.266861,82.431244 192.969940,84.892410 
	C192.653091,90.905174 192.285461,96.165520 191.917847,101.425858 
	C189.327347,99.511406 186.736832,97.596947 183.989822,95.379013 
z"/>
<path fill="#5FB2D3" opacity="1.000000" stroke="none" 
	d="
M192.157516,101.658188 
	C192.285461,96.165520 192.653091,90.905174 193.063995,85.203362 
	C198.139084,90.280312 200.768234,96.857086 202.300583,105.211685 
	C198.435089,103.915367 195.416138,102.902946 192.157516,101.658188 
z"/>
<path fill="#176989" opacity="1.000000" stroke="none" 
	d="
M72.154984,163.466339 
	C71.415596,156.809097 71.076683,150.266251 70.720551,143.390793 
	C72.830376,143.277390 74.240189,143.201614 75.672264,143.124649 
	C75.934860,143.807312 76.245026,144.243317 76.249840,144.682663 
	C76.306335,149.837601 76.178917,154.998779 76.392448,160.146194 
	C76.517036,163.149460 75.266632,164.035004 72.154984,163.466339 
z"/>
<path fill="#267A9C" opacity="1.000000" stroke="none" 
	d="
M129.916656,104.403717 
	C130.580078,102.801186 131.557266,101.625435 131.935272,100.281189 
	C132.454987,98.433029 132.521179,96.457336 132.955505,94.149117 
	C135.342422,96.298653 137.555466,98.835365 139.605469,101.985977 
	C139.294861,104.362717 139.325409,106.164131 138.953949,107.878433 
	C138.506210,109.944717 137.717102,111.937035 137.075775,113.961372 
	C134.704941,110.892708 132.334106,107.824043 129.916656,104.403717 
z"/>
<path fill="#52A5C6" opacity="1.000000" stroke="none" 
	d="
M178.408875,114.838348 
	C178.254471,108.916901 178.531906,103.087212 179.179565,96.973679 
	C181.217865,97.997665 182.885971,99.305496 184.768738,101.320312 
	C184.982544,106.254219 184.981674,110.481140 184.980789,114.708069 
	C182.934097,114.782082 180.887405,114.856102 178.408875,114.838348 
z"/>
<path fill="#287D9F" opacity="1.000000" stroke="none" 
	d="
M137.270813,114.179291 
	C137.717102,111.937035 138.506210,109.944717 138.953949,107.878433 
	C139.325409,106.164131 139.294861,104.362717 139.716797,102.301697 
	C141.615311,103.695312 143.239441,105.387115 144.955582,107.794769 
	C144.699692,113.693161 144.351791,118.875702 144.003891,124.058243 
	C142.251617,124.316032 140.499359,124.573814 138.372101,124.391235 
	C138.329453,122.021515 138.661804,120.092155 138.994141,118.162796 
	C138.484726,116.907600 137.975296,115.652405 137.270813,114.179291 
z"/>
<path fill="#4498BA" opacity="1.000000" stroke="none" 
	d="
M162.347168,128.690521 
	C161.975525,125.426521 161.987885,122.175606 161.998672,118.473549 
	C166.350357,118.825310 170.703598,119.628204 175.507507,120.904488 
	C175.969177,122.577446 175.980194,123.777031 175.991211,124.976608 
	C171.571198,126.218948 167.151184,127.461281 162.347168,128.690521 
z"/>
<path fill="#176989" opacity="1.000000" stroke="none" 
	d="
M111.363152,101.996811 
	C111.286385,96.480637 111.566788,90.945305 112.029610,84.999733 
	C113.129921,85.517632 114.138268,86.373123 114.951355,87.385437 
	C121.371132,95.378197 120.893600,97.484680 111.363152,101.996811 
z"/>
<path fill="#2F84A5" opacity="1.000000" stroke="none" 
	d="
M144.424179,124.125000 
	C144.351791,118.875702 144.699692,113.693161 145.092850,108.080383 
	C146.912659,109.017181 148.687225,110.384216 150.721100,111.981636 
	C150.645264,115.898651 150.310120,119.585289 149.957336,123.731552 
	C148.241302,124.191376 146.542877,124.191559 144.424179,124.125000 
z"/>
<path fill="#57AACB" opacity="1.000000" stroke="none" 
	d="
M185.354050,114.756226 
	C184.981674,110.481140 184.982544,106.254219 184.970749,101.573227 
	C187.161057,102.229889 189.364029,103.340607 191.789551,105.140076 
	C192.006195,108.214630 192.000320,110.600441 191.994446,112.986252 
	C189.905396,113.592293 187.816360,114.198341 185.354050,114.756226 
z"/>
<path fill="#267A9C" opacity="1.000000" stroke="none" 
	d="
M138.696716,118.010796 
	C138.661804,120.092155 138.329453,122.021515 137.997421,124.325317 
	C135.870255,124.659843 133.742767,124.619919 131.293701,124.361877 
	C131.342117,120.790215 131.712112,117.436661 132.489655,113.842758 
	C134.731216,115.021202 136.565262,116.440002 138.696716,118.010796 
z"/>
<path fill="#5FB2D3" opacity="1.000000" stroke="none" 
	d="
M192.361694,112.983948 
	C192.000320,110.600441 192.006195,108.214630 192.020050,105.379463 
	C194.892059,105.880173 197.756104,106.830238 200.620148,107.780304 
	C200.670395,108.191544 200.720642,108.602791 200.770889,109.014030 
	C198.090240,110.336563 195.409576,111.659103 192.361694,112.983948 
z"/>
<path fill="#57AACB" opacity="1.000000" stroke="none" 
	d="
M176.369110,124.982407 
	C175.980194,123.777031 175.969177,122.577446 175.923279,121.029404 
	C179.389893,120.096977 182.891418,119.513000 186.392929,118.929031 
	C186.583725,119.434334 186.774536,119.939636 186.965332,120.444931 
	C183.559219,121.959358 180.153107,123.473785 176.369110,124.982407 
z"/>
<path fill="#217495" opacity="1.000000" stroke="none" 
	d="
M112.064758,76.931427 
	C111.711517,76.806763 111.513573,76.530243 111.315620,76.253723 
	C111.568703,76.211983 111.821785,76.170235 112.289833,76.289993 
	C112.504799,76.451492 112.220047,76.779572 112.064758,76.931427 
z"/>
<path fill="#C3D9E0" opacity="1.000000" stroke="none" 
	d="
M181.265518,150.171326 
	C181.434814,146.510056 183.574448,146.869537 185.421585,147.897308 
	C186.139267,148.296631 186.114334,150.030640 186.427689,151.156662 
	C184.711014,150.958755 182.994354,150.760864 181.265518,150.171326 
z"/>
</svg>